<mxfile host="app.diagrams.net" agent="Mozilla/5.0 (Windows NT 10.0; Win64; x64) AppleWebKit/537.36 (KHTML, like Gecko) Chrome/141.0.0.0 Safari/537.36" version="28.2.8">
  <diagram name="API Flow" id="api-flow">
    <mxGraphModel dx="1426" dy="777" grid="1" gridSize="10" guides="1" tooltips="1" connect="1" arrows="1" fold="1" page="1" pageScale="1" pageWidth="1600" pageHeight="1000" background="light-dark(#FFFFFF,#FFFFFF)" math="0" shadow="0">
      <root>
        <mxCell id="0" />
        <mxCell id="1" parent="0" />
        <mxCell id="title" value="성적확인서 API 요청-응답 플로우" style="text;html=1;strokeColor=none;fillColor=none;align=center;verticalAlign=middle;whiteSpace=wrap;rounded=0;fontSize=28;fontStyle=1;fontColor=light-dark(#1A1A1A,#994C00);" parent="1" vertex="1">
          <mxGeometry x="450" y="50" width="700" height="50" as="geometry" />
        </mxCell>
        <mxCell id="client" value="클라이언트" style="shape=umlActor;verticalLabelPosition=bottom;verticalAlign=top;html=1;fillColor=#E3F2FD;strokeColor=#1976D2;strokeWidth=2;fontColor=light-dark(#0D47A1,#0000FF);fontSize=15;fontStyle=1;" parent="1" vertex="1">
          <mxGeometry x="100" y="110" width="50" height="90" as="geometry" />
        </mxCell>
        <mxCell id="controller" value="TranscriptController" style="rounded=1;whiteSpace=wrap;html=1;fillColor=#008a00;strokeColor=#005700;strokeWidth=2;fontColor=#ffffff;fontSize=14;fontStyle=1;" parent="1" vertex="1">
          <mxGeometry x="320" y="130" width="200" height="70" as="geometry" />
        </mxCell>
        <mxCell id="service" value="TranscriptService" style="rounded=1;whiteSpace=wrap;html=1;fillColor=#F3E5F5;strokeColor=#7B1FA2;strokeWidth=2;fontColor=#4A148C;fontSize=14;fontStyle=1;" parent="1" vertex="1">
          <mxGeometry x="650" y="130" width="200" height="70" as="geometry" />
        </mxCell>
        <mxCell id="repository" value="Repository" style="rounded=1;whiteSpace=wrap;html=1;fillColor=#fa6800;strokeColor=#C73500;strokeWidth=2;fontColor=#000000;fontSize=14;fontStyle=1;" parent="1" vertex="1">
          <mxGeometry x="980" y="130" width="160" height="70" as="geometry" />
        </mxCell>
        <mxCell id="database" value="Database" style="shape=cylinder3;whiteSpace=wrap;html=1;boundedLbl=1;backgroundOutline=1;size=15;fillColor=#e51400;strokeColor=#B20000;strokeWidth=2;fontColor=#ffffff;fontSize=14;fontStyle=1;" parent="1" vertex="1">
          <mxGeometry x="1280" y="120" width="110" height="90" as="geometry" />
        </mxCell>
        <mxCell id="lifeline-client" value="" style="endArrow=none;dashed=1;html=1;strokeWidth=2;strokeColor=#1976D2;" parent="1" edge="1">
          <mxGeometry width="50" height="50" relative="1" as="geometry">
            <mxPoint x="125" y="820" as="sourcePoint" />
            <mxPoint x="125" y="220" as="targetPoint" />
          </mxGeometry>
        </mxCell>
        <mxCell id="lifeline-controller" value="" style="endArrow=none;dashed=1;html=1;strokeWidth=2;strokeColor=#388E3C;" parent="1" edge="1">
          <mxGeometry width="50" height="50" relative="1" as="geometry">
            <mxPoint x="420" y="820" as="sourcePoint" />
            <mxPoint x="420" y="200" as="targetPoint" />
          </mxGeometry>
        </mxCell>
        <mxCell id="lifeline-service" value="" style="endArrow=none;dashed=1;html=1;strokeWidth=2;strokeColor=#7B1FA2;entryX=0.5;entryY=1;entryDx=0;entryDy=0;" parent="1" target="service" edge="1">
          <mxGeometry width="50" height="50" relative="1" as="geometry">
            <mxPoint x="750" y="830" as="sourcePoint" />
            <mxPoint x="750" y="190" as="targetPoint" />
          </mxGeometry>
        </mxCell>
        <mxCell id="lifeline-repository" value="" style="endArrow=none;dashed=1;html=1;strokeWidth=2;strokeColor=#F57F17;" parent="1" edge="1">
          <mxGeometry width="50" height="50" relative="1" as="geometry">
            <mxPoint x="1060" y="800" as="sourcePoint" />
            <mxPoint x="1060" y="200" as="targetPoint" />
          </mxGeometry>
        </mxCell>
        <mxCell id="lifeline-database" value="" style="endArrow=none;dashed=1;html=1;strokeWidth=2;strokeColor=#C62828;" parent="1" edge="1">
          <mxGeometry width="50" height="50" relative="1" as="geometry">
            <mxPoint x="1335" y="790" as="sourcePoint" />
            <mxPoint x="1335" y="210" as="targetPoint" />
          </mxGeometry>
        </mxCell>
        <mxCell id="time1" value="1" style="ellipse;whiteSpace=wrap;html=1;aspect=fixed;fillColor=#1976D2;strokeColor=#0D47A1;strokeWidth=2;fontColor=#FFFFFF;fontSize=14;fontStyle=1;" parent="1" vertex="1">
          <mxGeometry x="65" y="250" width="35" height="35" as="geometry" />
        </mxCell>
        <mxCell id="step1-box" value="API 요청&#xa;POST /api/transcript/view" style="rounded=1;whiteSpace=wrap;html=1;fillColor=#0050ef;strokeColor=#001DBC;strokeWidth=2;fontColor=#ffffff;fontSize=13;fontStyle=1;" parent="1" vertex="1">
          <mxGeometry x="100" y="245" width="160" height="65" as="geometry" />
        </mxCell>
        <mxCell id="arrow1" value="" style="edgeStyle=orthogonalEdgeStyle;rounded=0;orthogonalLoop=1;jettySize=auto;html=1;strokeWidth=3;strokeColor=#1976D2;endArrow=block;endFill=1;" parent="1" source="step1-box" target="step2-box" edge="1">
          <mxGeometry relative="1" as="geometry" />
        </mxCell>
        <mxCell id="arrow1-label" value="studentIdx" style="edgeLabel;html=1;align=center;verticalAlign=middle;resizable=0;points=[];fontSize=14;fontColor=#1A1A1A;backgroundColor=#FFFFFF;fontStyle=1;" parent="arrow1" vertex="1" connectable="0">
          <mxGeometry x="-0.1" y="2" relative="1" as="geometry">
            <mxPoint y="-12" as="offset" />
          </mxGeometry>
        </mxCell>
        <mxCell id="time2" value="2" style="ellipse;whiteSpace=wrap;html=1;aspect=fixed;fillColor=#388E3C;strokeColor=#1B5E20;strokeWidth=2;fontColor=#FFFFFF;fontSize=14;fontStyle=1;" parent="1" vertex="1">
          <mxGeometry x="340" y="220" width="35" height="35" as="geometry" />
        </mxCell>
        <mxCell id="step2-box" value="요청 수신 및 검증" style="rounded=1;whiteSpace=wrap;html=1;fillColor=#008a00;strokeColor=#005700;strokeWidth=2;fontColor=#ffffff;fontSize=13;fontStyle=1;" parent="1" vertex="1">
          <mxGeometry x="370" y="245" width="160" height="65" as="geometry" />
        </mxCell>
        <mxCell id="step2-detail" value="✓ JWT 토큰 검증&#xa;✓ 본인 확인" style="text;html=1;strokeColor=none;fillColor=none;align=left;verticalAlign=middle;whiteSpace=wrap;rounded=0;fontSize=14;fontColor=light-dark(#000000,#000000);labelBackgroundColor=none;" parent="1" vertex="1">
          <mxGeometry x="375" y="315" width="150" height="30" as="geometry" />
        </mxCell>
        <mxCell id="time3" value="3" style="ellipse;whiteSpace=wrap;html=1;aspect=fixed;fillColor=#7B1FA2;strokeColor=#4A148C;strokeWidth=2;fontColor=#FFFFFF;fontSize=14;fontStyle=1;" parent="1" vertex="1">
          <mxGeometry x="705" y="280" width="35" height="35" as="geometry" />
        </mxCell>
        <mxCell id="arrow2" value="" style="edgeStyle=orthogonalEdgeStyle;rounded=0;orthogonalLoop=1;jettySize=auto;html=1;strokeWidth=3;strokeColor=#388E3C;endArrow=block;endFill=1;exitX=1;exitY=0.5;exitDx=0;exitDy=0;" parent="1" source="step2-box" edge="1">
          <mxGeometry relative="1" as="geometry">
            <mxPoint x="450" y="350" as="sourcePoint" />
            <mxPoint x="700" y="340" as="targetPoint" />
            <Array as="points">
              <mxPoint x="530" y="340" />
            </Array>
          </mxGeometry>
        </mxCell>
        <mxCell id="arrow2-label" value="getTranscript(studentIdx)" style="edgeLabel;html=1;align=center;verticalAlign=middle;resizable=0;points=[];fontSize=14;fontColor=#1A1A1A;backgroundColor=#FFFFFF;fontStyle=1;" parent="arrow2" vertex="1" connectable="0">
          <mxGeometry x="-0.1" y="2" relative="1" as="geometry">
            <mxPoint x="8" y="18" as="offset" />
          </mxGeometry>
        </mxCell>
        <mxCell id="step3-box" value="서비스 계층&#xa;처리 시작" style="rounded=1;whiteSpace=wrap;html=1;fillColor=#E1BEE7;strokeColor=#7B1FA2;strokeWidth=2;fontColor=#4A148C;fontSize=13;fontStyle=1;" parent="1" vertex="1">
          <mxGeometry x="705" y="315" width="160" height="55" as="geometry" />
        </mxCell>
        <mxCell id="time4" value="4" style="ellipse;whiteSpace=wrap;html=1;aspect=fixed;fillColor=#fa6800;strokeColor=#C73500;strokeWidth=2;fontColor=#000000;fontSize=14;fontStyle=1;" parent="1" vertex="1">
          <mxGeometry x="970" y="345" width="35" height="35" as="geometry" />
        </mxCell>
        <mxCell id="arrow3" value="" style="edgeStyle=orthogonalEdgeStyle;rounded=0;orthogonalLoop=1;jettySize=auto;html=1;strokeWidth=3;strokeColor=#7B1FA2;endArrow=block;endFill=1;" parent="1" source="step3-box" target="step4-box" edge="1">
          <mxGeometry relative="1" as="geometry">
            <Array as="points">
              <mxPoint x="750" y="413" />
            </Array>
          </mxGeometry>
        </mxCell>
        <mxCell id="arrow3-label" value="학생 정보 조회 요청" style="edgeLabel;html=1;align=center;verticalAlign=middle;resizable=0;points=[];fontSize=14;fontColor=#1A1A1A;backgroundColor=#FFFFFF;fontStyle=1;" parent="arrow3" vertex="1" connectable="0">
          <mxGeometry x="-0.1" y="2" relative="1" as="geometry">
            <mxPoint x="60" y="-12" as="offset" />
          </mxGeometry>
        </mxCell>
        <mxCell id="step4-box" value="학생 정보 조회" style="rounded=1;whiteSpace=wrap;html=1;fillColor=#fa6800;strokeColor=#C73500;strokeWidth=2;fontColor=#000000;fontSize=13;fontStyle=1;" parent="1" vertex="1">
          <mxGeometry x="980" y="385" width="160" height="55" as="geometry" />
        </mxCell>
        <mxCell id="arrow4" value="" style="edgeStyle=orthogonalEdgeStyle;rounded=0;orthogonalLoop=1;jettySize=auto;html=1;strokeWidth=3;strokeColor=#F57F17;endArrow=block;endFill=1;" parent="1" source="step4-box" target="step5-box" edge="1">
          <mxGeometry relative="1" as="geometry" />
        </mxCell>
        <mxCell id="arrow4-label" value="SELECT FROM USER_TBL" style="edgeLabel;html=1;align=center;verticalAlign=middle;resizable=0;points=[];fontSize=14;fontColor=#1A1A1A;backgroundColor=#FFFFFF;fontStyle=1;" parent="arrow4" vertex="1" connectable="0">
          <mxGeometry x="-0.1" y="2" relative="1" as="geometry">
            <mxPoint x="7" y="-48" as="offset" />
          </mxGeometry>
        </mxCell>
        <mxCell id="step5-box" value="학생 정보" style="shape=cylinder3;whiteSpace=wrap;html=1;boundedLbl=1;backgroundOutline=1;size=12;fillColor=#e51400;strokeColor=#B20000;strokeWidth=2;fontColor=#ffffff;fontSize=14;fontStyle=1;" parent="1" vertex="1">
          <mxGeometry x="1280" y="380" width="110" height="65" as="geometry" />
        </mxCell>
        <mxCell id="arrow5" value="" style="edgeStyle=orthogonalEdgeStyle;rounded=0;orthogonalLoop=1;jettySize=auto;html=1;strokeWidth=3;strokeColor=#C62828;endArrow=block;endFill=1;dashed=1;entryX=1;entryY=0.5;entryDx=0;entryDy=0;" parent="1" source="step5-box" target="step6-box" edge="1">
          <mxGeometry relative="1" as="geometry">
            <Array as="points">
              <mxPoint x="1335" y="485" />
            </Array>
            <mxPoint x="1200" y="590" as="targetPoint" />
          </mxGeometry>
        </mxCell>
        <mxCell id="arrow5-label" value="Student Entity" style="edgeLabel;html=1;align=center;verticalAlign=middle;resizable=0;points=[];fontSize=14;fontColor=#1A1A1A;backgroundColor=#FFFFFF;fontStyle=1;" parent="arrow5" vertex="1" connectable="0">
          <mxGeometry x="-0.1" y="2" relative="1" as="geometry">
            <mxPoint y="-12" as="offset" />
          </mxGeometry>
        </mxCell>
        <mxCell id="step6-box" value="학생 데이터 수신" style="rounded=1;whiteSpace=wrap;html=1;fillColor=#fa6800;strokeColor=#C73500;strokeWidth=2;fontColor=#000000;fontSize=12;fontStyle=1;" parent="1" vertex="1">
          <mxGeometry x="980" y="460" width="160" height="50" as="geometry" />
        </mxCell>
        <mxCell id="time5" value="5" style="ellipse;whiteSpace=wrap;html=1;aspect=fixed;fillColor=#fa6800;strokeColor=#C73500;strokeWidth=2;fontColor=#000000;fontSize=14;fontStyle=1;" parent="1" vertex="1">
          <mxGeometry x="970" y="595" width="35" height="35" as="geometry" />
        </mxCell>
        <mxCell id="arrow6" value="" style="edgeStyle=orthogonalEdgeStyle;rounded=0;orthogonalLoop=1;jettySize=auto;html=1;strokeWidth=3;strokeColor=#7B1FA2;endArrow=block;endFill=1;entryX=0;entryY=0.5;entryDx=0;entryDy=0;" parent="1" source="step6-box" target="step7-box" edge="1">
          <mxGeometry relative="1" as="geometry">
            <Array as="points">
              <mxPoint x="1060" y="530" />
              <mxPoint x="750" y="530" />
              <mxPoint x="750" y="568" />
              <mxPoint x="900" y="568" />
            </Array>
            <mxPoint x="920" y="650" as="targetPoint" />
          </mxGeometry>
        </mxCell>
        <mxCell id="arrow6-label" value="수강 내역 조회 요청" style="edgeLabel;html=1;align=center;verticalAlign=middle;resizable=0;points=[];fontSize=14;fontColor=#1A1A1A;backgroundColor=#FFFFFF;fontStyle=1;" parent="arrow6" vertex="1" connectable="0">
          <mxGeometry x="-0.1" y="2" relative="1" as="geometry">
            <mxPoint x="109" y="-12" as="offset" />
          </mxGeometry>
        </mxCell>
        <mxCell id="step7-box" value="수강 내역 조회" style="rounded=1;whiteSpace=wrap;html=1;fillColor=#fa6800;strokeColor=#C73500;strokeWidth=2;fontColor=#000000;fontSize=13;fontStyle=1;" parent="1" vertex="1">
          <mxGeometry x="980" y="540" width="160" height="55" as="geometry" />
        </mxCell>
        <mxCell id="arrow7" value="" style="edgeStyle=orthogonalEdgeStyle;rounded=0;orthogonalLoop=1;jettySize=auto;html=1;strokeWidth=3;strokeColor=#F57F17;endArrow=block;endFill=1;" parent="1" source="step7-box" target="step8-box" edge="1">
          <mxGeometry relative="1" as="geometry" />
        </mxCell>
        <mxCell id="arrow7-label" value="SELECT FROM&#xa;ENROLLMENT_EXTENDED_TBL" style="edgeLabel;html=1;align=center;verticalAlign=middle;resizable=0;points=[];fontSize=13;fontColor=#1A1A1A;backgroundColor=#FFFFFF;fontStyle=1;" parent="arrow7" vertex="1" connectable="0">
          <mxGeometry x="-0.1" y="2" relative="1" as="geometry">
            <mxPoint x="-4" y="50" as="offset" />
          </mxGeometry>
        </mxCell>
        <mxCell id="step8-box" value="수강 내역&#xa;+ 성적 데이터" style="shape=cylinder3;whiteSpace=wrap;html=1;boundedLbl=1;backgroundOutline=1;size=12;fillColor=#e51400;strokeColor=#B20000;strokeWidth=2;fontColor=#ffffff;fontSize=14;fontStyle=1;" parent="1" vertex="1">
          <mxGeometry x="1280" y="535" width="110" height="65" as="geometry" />
        </mxCell>
        <mxCell id="step8-detail" value="JOIN LEC_TBL" style="text;html=1;strokeColor=none;fillColor=none;align=center;verticalAlign=middle;whiteSpace=wrap;rounded=0;fontSize=14;fontColor=light-dark(#FFFFFF,#FFFFFF);fontStyle=2;labelBackgroundColor=default;" parent="1" vertex="1">
          <mxGeometry x="1330" y="620" width="110" height="15" as="geometry" />
        </mxCell>
        <mxCell id="arrow8" value="" style="edgeStyle=orthogonalEdgeStyle;rounded=0;orthogonalLoop=1;jettySize=auto;html=1;strokeWidth=3;strokeColor=#C62828;endArrow=block;endFill=1;dashed=1;entryX=1;entryY=0.5;entryDx=0;entryDy=0;" parent="1" source="step8-box" target="step9-box" edge="1">
          <mxGeometry relative="1" as="geometry">
            <Array as="points">
              <mxPoint x="1335" y="660" />
              <mxPoint x="950" y="660" />
              <mxPoint x="950" y="645" />
            </Array>
          </mxGeometry>
        </mxCell>
        <mxCell id="arrow8-label" value="List + ENROLLMENT_DATA" style="edgeLabel;html=1;align=center;verticalAlign=middle;resizable=0;points=[];fontSize=14;fontColor=#1A1A1A;backgroundColor=#FFFFFF;fontStyle=1;" parent="arrow8" vertex="1" connectable="0">
          <mxGeometry x="-0.1" y="2" relative="1" as="geometry">
            <mxPoint x="56" y="18" as="offset" />
          </mxGeometry>
        </mxCell>
        <mxCell id="step9-box" value="수강 데이터 수신" style="rounded=1;whiteSpace=wrap;html=1;fillColor=#E1BEE7;strokeColor=#7B1FA2;strokeWidth=2;fontColor=#4A148C;fontSize=12;fontStyle=1;" parent="1" vertex="1">
          <mxGeometry x="670" y="620" width="160" height="50" as="geometry" />
        </mxCell>
        <mxCell id="time6" value="6" style="ellipse;whiteSpace=wrap;html=1;aspect=fixed;fillColor=#7B1FA2;strokeColor=#4A148C;strokeWidth=2;fontColor=#FFFFFF;fontSize=14;fontStyle=1;" parent="1" vertex="1">
          <mxGeometry x="830" y="700" width="35" height="35" as="geometry" />
        </mxCell>
        <mxCell id="arrow9" value="" style="edgeStyle=orthogonalEdgeStyle;rounded=0;orthogonalLoop=1;jettySize=auto;html=1;strokeWidth=3;strokeColor=#7B1FA2;endArrow=block;endFill=1;" parent="1" source="step9-box" target="step10-box" edge="1">
          <mxGeometry relative="1" as="geometry" />
        </mxCell>
        <mxCell id="step10-box" value="비즈니스 로직 처리" style="rounded=1;whiteSpace=wrap;html=1;fillColor=#E1BEE7;strokeColor=#7B1FA2;strokeWidth=2;fontColor=#4A148C;fontSize=13;fontStyle=1;" parent="1" vertex="1">
          <mxGeometry x="670" y="690" width="160" height="55" as="geometry" />
        </mxCell>
        <mxCell id="step10-details" value="&lt;font&gt;• 성적 상태 판정 (finalized 확인)&lt;br&gt;• letterGrade → GPA 변환&lt;br&gt;• 학기별 통계 계산&lt;br&gt;• 전체 통계 계산&lt;br&gt;• 발급번호 생성&lt;/font&gt;" style="text;html=1;strokeColor=none;fillColor=none;align=left;verticalAlign=top;whiteSpace=wrap;rounded=0;fontSize=14;fontColor=light-dark(#000000,#000000);labelBackgroundColor=none;" parent="1" vertex="1">
          <mxGeometry x="760" y="745" width="200" height="85" as="geometry" />
        </mxCell>
        <mxCell id="time7" value="7" style="ellipse;whiteSpace=wrap;html=1;aspect=fixed;fillColor=#388E3C;strokeColor=#1B5E20;strokeWidth=2;fontColor=#FFFFFF;fontSize=14;fontStyle=1;" parent="1" vertex="1">
          <mxGeometry x="380" y="572.5" width="35" height="35" as="geometry" />
        </mxCell>
        <mxCell id="arrow10" value="" style="edgeStyle=orthogonalEdgeStyle;rounded=0;orthogonalLoop=1;jettySize=auto;html=1;strokeWidth=3;strokeColor=#7B1FA2;endArrow=block;endFill=1;dashed=1;exitX=0;exitY=0.5;exitDx=0;exitDy=0;" parent="1" source="step10-box" target="step11-box" edge="1">
          <mxGeometry relative="1" as="geometry">
            <Array as="points">
              <mxPoint x="450" y="718" />
            </Array>
          </mxGeometry>
        </mxCell>
        <mxCell id="arrow10-label" value="TranscriptResponseDto" style="edgeLabel;html=1;align=center;verticalAlign=middle;resizable=0;points=[];fontSize=14;fontColor=#1A1A1A;backgroundColor=#FFFFFF;fontStyle=1;" parent="arrow10" vertex="1" connectable="0">
          <mxGeometry x="-0.1" y="2" relative="1" as="geometry">
            <mxPoint x="14" y="16" as="offset" />
          </mxGeometry>
        </mxCell>
        <mxCell id="h_mkhSosyW3v1IZNvlLR-2" value="" style="edgeStyle=orthogonalEdgeStyle;rounded=0;orthogonalLoop=1;jettySize=auto;html=1;" parent="1" source="step11-box" target="step12-box" edge="1">
          <mxGeometry relative="1" as="geometry" />
        </mxCell>
        <mxCell id="step11-box" value="응답 생성" style="rounded=1;whiteSpace=wrap;html=1;fillColor=#008a00;strokeColor=#005700;strokeWidth=2;fontColor=#ffffff;fontSize=13;fontStyle=1;" parent="1" vertex="1">
          <mxGeometry x="340" y="607.5" width="160" height="55" as="geometry" />
        </mxCell>
        <mxCell id="time8" value="8" style="ellipse;whiteSpace=wrap;html=1;aspect=fixed;fillColor=#1976D2;strokeColor=#0D47A1;strokeWidth=2;fontColor=#FFFFFF;fontSize=14;fontStyle=1;" parent="1" vertex="1">
          <mxGeometry x="162.5" y="662.5" width="35" height="35" as="geometry" />
        </mxCell>
        <mxCell id="arrow11" value="" style="edgeStyle=orthogonalEdgeStyle;rounded=0;orthogonalLoop=1;jettySize=auto;html=1;strokeWidth=3;strokeColor=#1976D2;endArrow=block;endFill=1;dashed=1;entryX=1;entryY=0.5;entryDx=0;entryDy=0;" parent="1" source="step11-box" target="step12-box" edge="1">
          <mxGeometry relative="1" as="geometry">
            <mxPoint x="280" y="820" as="targetPoint" />
          </mxGeometry>
        </mxCell>
        <mxCell id="arrow11-label" value="200 OK + JSON" style="edgeLabel;html=1;align=center;verticalAlign=middle;resizable=0;points=[];fontSize=14;fontColor=#1A1A1A;backgroundColor=#FFFFFF;fontStyle=1;" parent="arrow11" vertex="1" connectable="0">
          <mxGeometry x="-0.1" y="2" relative="1" as="geometry">
            <mxPoint x="1" y="8" as="offset" />
          </mxGeometry>
        </mxCell>
        <mxCell id="step12-box" value="성적확인서&#xa;수신 완료" style="rounded=1;whiteSpace=wrap;html=1;fillColor=#0050ef;strokeColor=#001DBC;strokeWidth=2;fontColor=#ffffff;fontSize=13;fontStyle=1;" parent="1" vertex="1">
          <mxGeometry x="45" y="607.5" width="160" height="55" as="geometry" />
        </mxCell>
      </root>
    </mxGraphModel>
  </diagram>
</mxfile>
